<?xml version="1.0" encoding="UTF-8" standalone="no"?>
<!-- Uploaded to: SVG Repo, www.svgrepo.com, Generator: SVG Repo Mixer Tools -->

<svg
   width="50"
   height="50"
   viewBox="0 0 1 1"
   fill="none"
   version="1.1"
   id="svg1"
   sodipodi:docname="api-white.svg"
   inkscape:version="1.4.4 (dcaf3e7, 2026-05-05)"
   xmlns:inkscape="http://www.inkscape.org/namespaces/inkscape"
   xmlns:sodipodi="http://sodipodi.sourceforge.net/DTD/sodipodi-0.dtd"
   xmlns="http://www.w3.org/2000/svg"
   xmlns:svg="http://www.w3.org/2000/svg">
  <defs
     id="defs1" />
  <sodipodi:namedview
     id="namedview1"
     pagecolor="#ffffff"
     bordercolor="#000000"
     borderopacity="0.25"
     inkscape:showpageshadow="2"
     inkscape:pageopacity="0.0"
     inkscape:pagecheckerboard="0"
     inkscape:deskcolor="#d1d1d1"
     inkscape:zoom="7.83"
     inkscape:cx="50.702427"
     inkscape:cy="9.770115"
     inkscape:window-width="1920"
     inkscape:window-height="1001"
     inkscape:window-x="-9"
     inkscape:window-y="-9"
     inkscape:window-maximized="1"
     inkscape:current-layer="svg1" />
  <path
     fill="#000000"
     fill-rule="evenodd"
     d="m 0.00996726,0.15706384 a 0.14699532,0.14699532 0 1 1 0.27961777,0.0633713 l 0.0878705,0.0878052 0.0185541,-0.0185541 a 0.14699532,0.14699532 0 0 1 0.20788407,0 l 0.018554,0.0185541 0.087805,-0.0878052 a 0.14699532,0.14699532 0 1 1 0.069251,0.0692511 l -0.08774,0.0878705 0.018554,0.0185541 a 0.14699532,0.14699532 0 0 1 0,0.20788401 l -0.018554,0.018554 0.087805,0.087805 a 0.14699532,0.14699532 0 1 1 -0.069251,0.069251 l -0.087871,-0.08774 -0.018554,0.018554 a 0.14699532,0.14699532 0 0 1 -0.20788407,0 l -0.0185541,-0.018554 -0.0878052,0.087805 a 0.14699532,0.14699532 0 1 1 -0.0692511,-0.069251 l 0.0877399,-0.087871 -0.0185541,-0.018554 a 0.14699532,0.14699532 0 0 1 0,-0.20788401 l 0.0185551,-0.018553 -0.0878052,-0.0878052 A 0.14699532,0.14699532 0 0 1 0.00996726,0.15706384 Z m 0.14699532,-0.0489984 a 0.04899845,0.04899845 0 1 0 0,0.0979969 0.04899845,0.04899845 0 0 0 0,-0.0979969 z m 0,0.68597811 a 0.0489985,0.0489985 0 1 0 0,0.097997 0.0489985,0.0489985 0 0 0 0,-0.097997 z m 0.63697972,0.048998 a 0.0489985,0.0489985 0 1 1 0.097997,0 0.0489985,0.0489985 0 0 1 -0.097997,0 z m 0.048998,-0.73497661 a 0.04899845,0.04899845 0 1 0 0,0.0979969 0.04899845,0.04899845 0 0 0 0,-0.0979969 z M 0.4653261,0.35900275 a 0.04899844,0.04899844 0 0 1 0.0692511,0 l 0.10649,0.10642461 a 0.04899844,0.04899844 0 0 1 0,0.0692511 l -0.10649,0.10649 a 0.04899844,0.04899844 0 0 1 -0.0692511,0 l -0.10648994,-0.10649 a 0.04899844,0.04899844 0 0 1 0,-0.0692511 L 0.4653261,0.35893742 Z"
     clip-rule="evenodd"
     id="path1"
     style="stroke-width:0.0653313;fill:#ffffff;fill-opacity:1" />
</svg>
