<?xml version="1.0" encoding="UTF-8" standalone="no"?>
<!-- Uploaded to: SVG Repo, www.svgrepo.com, Generator: SVG Repo Mixer Tools -->

<svg
   width="50"
   height="50"
   viewBox="0 0 1.5 1.5"
   fill="none"
   version="1.1"
   id="svg1"
   sodipodi:docname="chart-line-white.svg"
   inkscape:version="1.4.4 (dcaf3e7, 2026-05-05)"
   xmlns:inkscape="http://www.inkscape.org/namespaces/inkscape"
   xmlns:sodipodi="http://sodipodi.sourceforge.net/DTD/sodipodi-0.dtd"
   xmlns="http://www.w3.org/2000/svg"
   xmlns:svg="http://www.w3.org/2000/svg">
  <defs
     id="defs1" />
  <sodipodi:namedview
     id="namedview1"
     pagecolor="#ffffff"
     bordercolor="#000000"
     borderopacity="0.25"
     inkscape:showpageshadow="2"
     inkscape:pageopacity="0.0"
     inkscape:pagecheckerboard="0"
     inkscape:deskcolor="#d1d1d1"
     inkscape:zoom="3.915"
     inkscape:cx="-5.6194125"
     inkscape:cy="51.724138"
     inkscape:window-width="1920"
     inkscape:window-height="1001"
     inkscape:window-x="-9"
     inkscape:window-y="-9"
     inkscape:window-maximized="1"
     inkscape:current-layer="Interface / Chart_Line" />
  <g
     id="Interface / Chart_Line"
     transform="matrix(0.07174763,0,0,0.08484692,-0.10152516,-0.30436213)"
     style="stroke-width:1.00009162;stroke-dasharray:none">
    <path
       id="Vector"
       d="M 3,15.0002 V 16.8 c 0,1.1201 0,1.6798 0.21799,2.1076 0.19174,0.3763 0.49748,0.6829 0.87381,0.8746 C 4.5192,20 5.07899,20 6.19691,20 H 21.0002 M 3,15.0002 V 5 m 0,10.0002 3.8534,-3.2111 0.00318,-0.0026 c 0.69708,-0.5809 1.0463,-0.8719 1.42496,-0.9901 0.44733,-0.1397 0.92917,-0.1176 1.36201,0.062 0.36695,0.1522 0.68875,0.474 1.33225,1.1175 l 0.0064,0.0064 c 0.6535,0.6535 0.9811,0.9812 1.354,1.133 0.4412,0.1798 0.9323,0.1953 1.3845,0.0453 0.3834,-0.1272 0.7335,-0.4331 1.4336,-1.0456 L 21,7"
       stroke="#000000"
       stroke-width="2"
       stroke-linecap="round"
       stroke-linejoin="round"
       style="stroke-width:1.38459435;stroke-dasharray:none;stroke:#ffffff;stroke-opacity:1" />
  </g>
</svg>
