<?xml version="1.0" encoding="UTF-8" standalone="no"?>
<!-- Uploaded to: SVG Repo, www.svgrepo.com, Generator: SVG Repo Mixer Tools -->

<svg
   fill="#000000"
   height="50"
   width="50"
   version="1.1"
   id="Capa_1"
   viewBox="0 0 22.5 22.5"
   xml:space="preserve"
   sodipodi:docname="dollar-black.svg"
   inkscape:version="1.4.4 (dcaf3e7, 2026-05-05)"
   xmlns:inkscape="http://www.inkscape.org/namespaces/inkscape"
   xmlns:sodipodi="http://sodipodi.sourceforge.net/DTD/sodipodi-0.dtd"
   xmlns="http://www.w3.org/2000/svg"
   xmlns:svg="http://www.w3.org/2000/svg"><defs
   id="defs2" /><sodipodi:namedview
   id="namedview2"
   pagecolor="#ffffff"
   bordercolor="#000000"
   borderopacity="0.25"
   inkscape:showpageshadow="2"
   inkscape:pageopacity="0.0"
   inkscape:pagecheckerboard="0"
   inkscape:deskcolor="#d1d1d1"
   inkscape:zoom="3.915"
   inkscape:cx="27.330779"
   inkscape:cy="35.632184"
   inkscape:window-width="1920"
   inkscape:window-height="1001"
   inkscape:window-x="-9"
   inkscape:window-y="-9"
   inkscape:window-maximized="1"
   inkscape:current-layer="Capa_1" />
<g
   id="g2"
   transform="matrix(0.06125004,0,0,0.06125004,0.16276121,0.37468379)">
	<path
   d="m 359.724,287.393 -13.105,-78.795 c -0.466,-2.792 -1.989,-5.236 -4.289,-6.879 -2.278,-1.63 -5.12,-2.294 -7.903,-1.834 l -14.561,2.422 c 1.151,-7.339 1.753,-14.817 1.752,-22.387 0,-38.208 -14.878,-74.13 -41.897,-101.146 -28.189,-28.192 -61.275,-41.897 -101.147,-41.897 -1.131,0 -2.259,0.02 -3.386,0.046 -14.387,-4.132 -28.686,-6.242 -42.512,-6.242 -48.646,0 -82.028,25.445 -99.173,42.859 L 16.76,61.573 c -1.81,-1.292 -3.939,-1.975 -6.162,-1.975 -1.983,0 -3.922,0.554 -5.606,1.604 -3.648,2.274 -5.551,6.485 -4.847,10.729 L 13.366,151.4 c 0.856,5.133 5.249,8.858 10.445,8.858 0.585,0 1.174,-0.05 1.746,-0.145 l 11.684,-1.943 c -1.08,7.134 -1.643,14.397 -1.643,21.752 0,38.25 14.854,74.171 41.831,101.147 27.018,27.017 62.939,41.896 101.146,41.896 1.811,0 3.613,-0.046 5.412,-0.112 14.66,4.288 29.235,6.465 43.323,6.466 48.642,0 82.027,-25.446 99.171,-42.861 l 16.741,11.967 c 1.76,1.258 3.823,1.939 5.983,1.975 l 0.032,0.002 0.462,-0.004 C 355.405,300.241 360,295.55 360,289.807 c 0,-0.818 -0.093,-1.628 -0.276,-2.414 z m -181.149,14.38 c -32.547,0 -63.148,-12.674 -86.162,-35.689 C 62.16,235.831 51.193,193.502 59.471,154.473 l 45.554,-7.577 c 4.244,-0.705 7.613,-3.867 8.587,-8.058 0.971,-4.189 -0.663,-8.512 -4.161,-11.014 L 89.65,113.669 c 8.196,-18.001 25.773,-43.447 61.389,-52.486 8.927,-2.054 18.149,-3.114 27.536,-3.114 32.549,0 63.15,12.675 86.165,35.69 30.423,30.422 41.341,73.055 32.8,112.262 l -42.585,7.084 c -4.242,0.707 -7.609,3.869 -8.583,8.061 -0.972,4.189 0.665,8.512 4.161,11.012 l 19.802,14.152 c -6.1,13.4 -17.393,30.925 -37.456,42.74 -16.662,8.309 -35.145,12.703 -54.304,12.703 z"
   id="path1" />
	<path
   d="m 184.849,169.457 c -17.61,-5.332 -21.412,-8.08 -21.412,-15.475 0,-7.507 12.007,-9.509 19.103,-9.509 6.744,0 14.775,2.144 19.527,5.215 1.912,1.234 4.454,0.687 5.689,-1.223 l 8.936,-13.829 c 1.232,-1.908 0.685,-4.456 -1.223,-5.69 -6.607,-4.269 -15.279,-7.306 -24.248,-8.548 v -8.515 c 0,-2.273 -1.841,-4.115 -4.116,-4.115 h -16.462 c -2.273,0 -4.115,1.842 -4.115,4.115 v 9.862 c -17.23,4.551 -27.786,16.666 -27.786,32.236 0,27.314 23.439,34.413 38.948,39.109 16.688,5.053 20.051,7.34 19.998,13.628 0,6.952 -11.473,8.807 -18.251,8.807 -8.323,0 -17.682,-3.747 -22.756,-9.111 -0.752,-0.792 -1.785,-1.256 -2.877,-1.285 -1.089,-0.029 -2.148,0.372 -2.941,1.124 l -11.961,11.314 c -1.649,1.564 -1.722,4.168 -0.16,5.819 6.966,7.361 16.949,12.844 27.786,15.334 v 9.394 c 0,2.272 1.842,4.115 4.115,4.115 h 16.462 c 2.275,0 4.116,-1.843 4.116,-4.115 v -8.946 c 19.057,-3.561 31.163,-15.98 31.159,-32.346 0.22,-25.931 -22.497,-32.812 -37.531,-37.365 z"
   id="path2" />
</g>
</svg>
