<?xml version="1.0" encoding="UTF-8" standalone="no"?>
<!-- Uploaded to: SVG Repo, www.svgrepo.com, Generator: SVG Repo Mixer Tools -->

<svg
   width="50"
   height="50"
   viewBox="0 0 1.125 1.125"
   mirror-in-rtl="true"
   version="1.1"
   id="svg2"
   sodipodi:docname="load-grey.svg"
   inkscape:version="1.4.4 (dcaf3e7, 2026-05-05)"
   xmlns:inkscape="http://www.inkscape.org/namespaces/inkscape"
   xmlns:sodipodi="http://sodipodi.sourceforge.net/DTD/sodipodi-0.dtd"
   xmlns="http://www.w3.org/2000/svg"
   xmlns:svg="http://www.w3.org/2000/svg">
  <defs
     id="defs2" />
  <sodipodi:namedview
     id="namedview2"
     pagecolor="#ffffff"
     bordercolor="#000000"
     borderopacity="0.25"
     inkscape:showpageshadow="2"
     inkscape:pageopacity="0.0"
     inkscape:pagecheckerboard="0"
     inkscape:deskcolor="#d1d1d1"
     inkscape:zoom="5.5366461"
     inkscape:cx="6.6827461"
     inkscape:cy="15.803791"
     inkscape:window-width="1920"
     inkscape:window-height="1001"
     inkscape:window-x="-9"
     inkscape:window-y="-9"
     inkscape:window-maximized="1"
     inkscape:current-layer="svg2" />
  <path
     fill="#494c4e"
     d="m 0.80844149,0.0121915 c 0.03381,0 0.06125,0.02744 0.06125,0.06125 0,0.01880375 -0.008575,0.03656625 -0.023275,0.0483875 l -0.003675,0.00245 c -0.0695187,0.04655 -0.1216425,0.11484375 -0.148225,0.1941625 -0.00588,0.0199063 -0.008943,0.040425 -0.009188,0.06125 h 0.0622912 c 0.0226625,1.8375e-4 0.0433038,0.01323 0.053165,0.0336875 0.010535,0.020825 0.008392,0.0456313 -0.005513,0.0643125 l -0.18326,0.245 c -0.0116375,0.015435 -0.0297062,0.0245 -0.049,0.0245 -0.0192938,0 -0.0373625,-0.009065 -0.049,-0.0245 l -0.1833207,-0.245 c -0.013965,-0.01862 -0.0161088,-0.04361 -0.005512,-0.0643125 0.0101062,-0.0203963 0.0308087,-0.0334425 0.0535325,-0.0336875 h 0.06223 c 0,-0.1316875 0.18944625,-0.3619875 0.3675,-0.3675 z"
     id="path1"
     style="stroke-width:0.06125;fill:#7b8084;fill-opacity:1" />
  <path
     fill="#494c4e"
     d="m 1.1146915,0.5021915 c 1.225e-4,0.002082 -1.225e-4,0.004104 -6.125e-4,0.006125 v 0.545125 c 0,0.03381 -0.02744,0.06125 -0.06125,0.06125 H 0.07344149 c -0.03381,0 -0.06125,-0.02744 -0.06125,-0.06125 l 6.125e-4,-0.55125 c 0,-0.0218662 0.0116375,-0.0420788 0.030625,-0.0530425 0.0189875,-0.011025 0.0422625,-0.011025 0.06125,0 0.0189875,0.011025 0.030625,0.0312375 0.030625,0.0530425 1.225e-4,0.002082 -1.225e-4,0.004104 -6.125e-4,0.006125 v 0.483875 h 0.8568875 v -0.49 h 6.125e-4 c 0,-0.03381 0.02744,-0.06125 0.06125,-0.06125 0.03381,0 0.06125,0.02744 0.06125,0.06125 z"
     id="path2"
     style="stroke-width:0.06125;fill:#7b8084;fill-opacity:1" />
</svg>
