<?xml version="1.0" encoding="UTF-8" standalone="no"?>
<!-- Uploaded to: SVG Repo, www.svgrepo.com, Generator: SVG Repo Mixer Tools -->

<svg
   width="50"
   height="50"
   viewBox="0 0 1.5 1.5"
   fill="none"
   version="1.1"
   id="svg9"
   sodipodi:docname="sun-white.svg"
   inkscape:version="1.4.4 (dcaf3e7, 2026-05-05)"
   xmlns:inkscape="http://www.inkscape.org/namespaces/inkscape"
   xmlns:sodipodi="http://sodipodi.sourceforge.net/DTD/sodipodi-0.dtd"
   xmlns="http://www.w3.org/2000/svg"
   xmlns:svg="http://www.w3.org/2000/svg">
  <defs
     id="defs9" />
  <sodipodi:namedview
     id="namedview9"
     pagecolor="#ffffff"
     bordercolor="#000000"
     borderopacity="0.25"
     inkscape:showpageshadow="2"
     inkscape:pageopacity="0.0"
     inkscape:pagecheckerboard="0"
     inkscape:deskcolor="#d1d1d1"
     inkscape:zoom="5.5366461"
     inkscape:cx="38.651558"
     inkscape:cy="32.239735"
     inkscape:window-width="1920"
     inkscape:window-height="1001"
     inkscape:window-x="-9"
     inkscape:window-y="-9"
     inkscape:window-maximized="1"
     inkscape:current-layer="svg9" />
  <path
     d="m 0.68458689,0.07750533 c 0,-0.03382745 0.0274216,-0.06125 0.06125,-0.06125 0.0338284,0 0.06125,0.02742255 0.06125,0.06125 v 0.1225 c 0,0.0338271 -0.0274216,0.06125 -0.06125,0.06125 -0.0338284,0 -0.06125,-0.0274229 -0.06125,-0.06125 z"
     fill="#0f0f0f"
     id="path1"
     style="stroke-width:0.06125;fill:#ffffff;fill-opacity:1" />
  <path
     fill-rule="evenodd"
     clip-rule="evenodd"
     d="m 1.1133369,0.75125533 c 0,0.20296413 -0.16453588,0.36749997 -0.36750001,0.36749997 -0.20296474,0 -0.3675,-0.16453584 -0.3675,-0.36749997 0,-0.20296474 0.16453526,-0.3675 0.3675,-0.3675 0.20296413,0 0.36750001,0.16453526 0.36750001,0.3675 z m -0.60872273,0 c 0,0.13322487 0.10799907,0.24122087 0.24122272,0.24122087 0.13322487,0 0.24122087,-0.107996 0.24122087,-0.24122087 0,-0.13322365 -0.107996,-0.24122272 -0.24122087,-0.24122272 -0.13322365,0 -0.24122272,0.10799907 -0.24122272,0.24122272 z"
     fill="#0f0f0f"
     id="path2"
     style="stroke-width:0.06125;fill:#ffffff;fill-opacity:1" />
  <path
     d="m 1.2655615,0.23153193 c -0.023924,-0.0239199 -0.062701,-0.0239199 -0.08662,0 l -0.086625,0.0866204 c -0.023918,0.0239199 -0.023918,0.062701 0,0.086621 0.023924,0.0239194 0.062701,0.0239194 0.086626,0 l 0.08662,-0.086621 c 0.023918,-0.0239194 0.023918,-0.062701 -10e-7,-0.0866204 z"
     fill="#0f0f0f"
     id="path3"
     style="stroke-width:0.06125;fill:#ffffff;fill-opacity:1" />
  <path
     d="m 0.07208689,0.81250533 c -0.03382745,0 -0.06125,-0.0274216 -0.06125,-0.06125 0,-0.0338284 0.02742255,-0.06125 0.06125,-0.06125 h 0.1225 c 0.0338271,0 0.06125,0.0274216 0.06125,0.06125 0,0.0338284 -0.0274229,0.06125 -0.06125,0.06125 z"
     fill="#0f0f0f"
     id="path4"
     style="stroke-width:0.06125;fill:#ffffff;fill-opacity:1" />
  <path
     d="m 0.22611349,0.23153193 c -0.0239194,0.0239193 -0.0239194,0.062701 0,0.0866203 l 0.0866209,0.086621 c 0.0239193,0.0239194 0.062701,0.0239194 0.0866203,0 0.0239199,-0.0239199 0.0239199,-0.062701 0,-0.086621 l -0.0866202,-0.0866203 c -0.0239199,-0.0239199 -0.062701,-0.0239199 -0.086621,0 z"
     fill="#0f0f0f"
     id="path5"
     style="stroke-width:0.06125;fill:#ffffff;fill-opacity:1" />
  <path
     d="m 0.68458689,1.3025053 c 0,-0.033829 0.0274216,-0.06125 0.06125,-0.06125 0.0338284,0 0.06125,0.027421 0.06125,0.06125 v 0.1225 c 0,0.033828 -0.0274216,0.06125 -0.06125,0.06125 -0.0338284,0 -0.06125,-0.027422 -0.06125,-0.06125 z"
     fill="#0f0f0f"
     id="path6"
     style="stroke-width:0.06125;fill:#ffffff;fill-opacity:1" />
  <path
     d="m 0.39935483,1.0977404 c -0.0239194,-0.023925 -0.062701,-0.023925 -0.0866203,0 l -0.0866203,0.086619 c -0.0239199,0.023918 -0.0239199,0.062701 0,0.08662 0.0239194,0.023918 0.062701,0.023918 0.0866203,0 l 0.0866203,-0.08662 c 0.0239199,-0.023924 0.0239199,-0.062701 0,-0.086619 z"
     fill="#0f0f0f"
     id="path7"
     style="stroke-width:0.06125;fill:#ffffff;fill-opacity:1" />
  <path
     d="m 1.2970869,0.81250533 c -0.033828,0 -0.06125,-0.0274216 -0.06125,-0.06125 0,-0.0338284 0.027421,-0.06125 0.06125,-0.06125 h 0.1225 c 0.033829,0 0.06125,0.0274216 0.06125,0.06125 0,0.0338284 -0.027421,0.06125 -0.06125,0.06125 z"
     fill="#0f0f0f"
     id="path8"
     style="stroke-width:0.06125;fill:#ffffff;fill-opacity:1" />
  <path
     d="m 1.0923159,1.0977404 c -0.023918,0.023918 -0.023918,0.062696 0,0.086619 l 0.086626,0.08662 c 0.023918,0.023918 0.062696,0.023918 0.08662,0 0.023918,-0.023918 0.023918,-0.062701 0,-0.08662 l -0.08662,-0.086619 c -0.023924,-0.023925 -0.062701,-0.023925 -0.086626,0 z"
     fill="#0f0f0f"
     id="path9"
     style="stroke-width:0.06125;fill:#ffffff;fill-opacity:1" />
</svg>
