<?xml version="1.0" encoding="UTF-8" standalone="no"?>
<!-- Uploaded to: SVG Repo, www.svgrepo.com, Generator: SVG Repo Mixer Tools -->

<svg
   fill="#000000"
   width="50"
   height="50"
   viewBox="0 0 1 1"
   id="table-16px"
   version="1.1"
   sodipodi:docname="table-grey.svg"
   inkscape:version="1.4.4 (dcaf3e7, 2026-05-05)"
   xmlns:inkscape="http://www.inkscape.org/namespaces/inkscape"
   xmlns:sodipodi="http://sodipodi.sourceforge.net/DTD/sodipodi-0.dtd"
   xmlns="http://www.w3.org/2000/svg"
   xmlns:svg="http://www.w3.org/2000/svg">
  <defs
     id="defs1" />
  <sodipodi:namedview
     id="namedview1"
     pagecolor="#ffffff"
     bordercolor="#000000"
     borderopacity="0.25"
     inkscape:showpageshadow="2"
     inkscape:pageopacity="0.0"
     inkscape:pagecheckerboard="0"
     inkscape:deskcolor="#d1d1d1"
     inkscape:zoom="3.915"
     inkscape:cx="-22.988506"
     inkscape:cy="13.409962"
     inkscape:window-width="1920"
     inkscape:window-height="1001"
     inkscape:window-x="-9"
     inkscape:window-y="-9"
     inkscape:window-maximized="1"
     inkscape:current-layer="table-16px" />
  <path
     id="Path_31"
     data-name="Path 31"
     d="m 0.83043423,0.02043423 h -0.66 a 0.15,0.15 0 0 0 -0.15,0.15 v 0.66 a 0.15,0.15 0 0 0 0.15,0.15 h 0.66 a 0.15,0.15 0 0 0 0.15,-0.15 v -0.66 a 0.15,0.15 0 0 0 -0.15,-0.15 z m -0.21,0.24 v 0.18 h -0.24 v -0.18 z m 0.3,0.42 h -0.24 v -0.18 h 0.24 z m -0.3,0 h -0.24 v -0.18 h 0.24 z m 0,0.06 v 0.18 h -0.24 v -0.18 z m -0.54,-0.24 h 0.24 v 0.18 h -0.24 z m 0.24,-0.06 h -0.24 v -0.18 h 0.24 z m -0.24,0.39 v -0.09 h 0.24 v 0.18 h -0.15 a 0.09,0.09 0 0 1 -0.09,-0.09 z m 0.75,0.09 h -0.15 v -0.18 h 0.24 v 0.09 a 0.09,0.09 0 0 1 -0.09,0.09 z m 0.09,-0.48 h -0.24 v -0.18 h 0.24 z m -0.84,-0.24 v -0.03 a 0.09,0.09 0 0 1 0.09,-0.09 h 0.66 a 0.09,0.09 0 0 1 0.09,0.09 v 0.03 z"
     style="stroke-width:0.0599999;fill:#808080;fill-opacity:1" />
</svg>
