<?xml version="1.0" encoding="UTF-8" standalone="no"?>
<!-- Uploaded to: SVG Repo, www.svgrepo.com, Generator: SVG Repo Mixer Tools -->

<svg
   fill="#000000"
   width="50"
   height="50"
   viewBox="0 0 1.25 1.25"
   version="1.1"
   id="svg1"
   sodipodi:docname="tools-grey.svg"
   inkscape:version="1.4.4 (dcaf3e7, 2026-05-05)"
   xmlns:inkscape="http://www.inkscape.org/namespaces/inkscape"
   xmlns:sodipodi="http://sodipodi.sourceforge.net/DTD/sodipodi-0.dtd"
   xmlns="http://www.w3.org/2000/svg"
   xmlns:svg="http://www.w3.org/2000/svg">
  <defs
     id="defs1" />
  <sodipodi:namedview
     id="namedview1"
     pagecolor="#ffffff"
     bordercolor="#000000"
     borderopacity="0.25"
     inkscape:showpageshadow="2"
     inkscape:pageopacity="0.0"
     inkscape:pagecheckerboard="0"
     inkscape:deskcolor="#d1d1d1"
     inkscape:zoom="5.5366461"
     inkscape:cx="24.021763"
     inkscape:cy="-0.63215166"
     inkscape:window-width="1920"
     inkscape:window-height="1001"
     inkscape:window-x="-9"
     inkscape:window-y="-9"
     inkscape:window-maximized="1"
     inkscape:current-layer="svg1" />
  <path
     d="m 0.20412616,0.42913582 c 0.0573825,-0.04459 0.10498585,-0.0138386 0.16851858,0.0597192 0.007134,0.008301 0.0167289,-0.001411 0.0222027,-0.006154 0.005413,-0.004802 0.0892411,-0.0802619 0.0933618,-0.0837056 0.004059,-0.003626 0.00898,-0.0103939 0.002522,-0.0179585 a 2.2287505,2.2287505 0 0 1 -0.0456973,-0.058486 C 0.33383627,0.17709606 0.74922843,0.07844505 0.68544968,0.07690743 0.65297604,0.0760464 0.52271239,0.07450643 0.5032159,0.07666145 0.42430736,0.08496204 0.32522583,0.15870696 0.2753468,0.1930868 0.210092,0.2377385 0.1857368,0.2639388 0.1817391,0.2675667 0.1632882,0.2836808 0.1787871,0.3208894 0.1453293,0.3502267 0.109965,0.3811623 0.08788539,0.3577337 0.06740484,0.375689 0.05725682,0.384666 0.02884237,0.4059484 0.02072396,0.4130211 c -0.00818,0.007193 -0.009656,0.0193119 -0.0012915,0.0289678 0,0 0.07773996,0.0858587 0.08425929,0.0934851 0.006458,0.007507 0.0240477,0.0140228 0.0348723,0.004371 0.010886,-0.009594 0.03887,-0.0340109 0.0435442,-0.038316 0.004797,-0.004057 -0.003075,-0.0529542 0.0220181,-0.0723896 z m 0.35105988,0.031797 c -0.00738,-0.008546 -0.0165443,-0.008791 -0.0244168,-0.001784 l -0.0881955,0.0770019 a 0.01777441,0.01777441 0 0 0 -0.00166,0.0246009 L 0.95102019,1.1412806 c 0.0119316,0.013715 0.0325966,0.01513 0.0461889,0.00326 l 0.059658,-0.050002 a 0.0332117,0.0332117 0 0 0 0.00319,-0.04662 z M 1.2353492,0.21387493 c -0.00455,-0.0303829 -0.020296,-0.0240482 -0.028476,-0.0111935 -0.00818,0.0129771 -0.044344,0.0677767 -0.059227,0.0926236 -0.014761,0.0246009 -0.051171,0.07325 -0.1189471,0.0252164 -0.0706059,-0.049879 -0.0460658,-0.0846896 -0.033765,-0.10812251 0.012362,-0.0235562 0.050309,-0.0896101 0.055783,-0.0977902 0.00548,-0.008301 -9.226e-4,-0.03241248 -0.022817,-0.02232535 -0.021957,0.01008615 -0.15517242,0.06304039 -0.17362336,0.13899708 -0.0188814,0.0772484 0.0158063,0.14631591 -0.0522777,0.21489192 l -0.0825987,0.0861047 0.0829677,0.0963143 0.10172618,-0.0965603 c 0.0242322,-0.0243549 0.0760179,-0.0480337 0.12288338,-0.0373321 0.1004346,0.0226948 0.1552339,-0.0150067 0.188261,-0.0773709 0.029645,-0.0557218 0.024724,-0.17306978 0.020112,-0.2034523 z M 0.17977091,1.0541922 a 0.03308869,0.03308869 0 0 0 0,0.046619 l 0.0584895,0.057198 c 0.0127926,0.012855 0.0330887,0.00744 0.0458813,-0.00541 L 0.5859376,0.85590608 0.4934984,0.75048975 Z"
     id="path1"
     style="stroke-width:0.0615032;fill:#808080;fill-opacity:1" />
</svg>
